HIERARCHY
ROOT Hips
{
	OFFSET 0.00 0.00 0.00
	CHANNELS 6 Xposition Yposition Zposition Xrotation Yrotation Zrotation
	JOINT Spine
	{
		OFFSET 0.00000 1.75157 2.62736
		CHANNELS 3 Xrotation Yrotation Zrotation
		JOINT Spine1
		{
			OFFSET 0.00000 0.60831 3.44992
			CHANNELS 3 Xrotation Yrotation Zrotation
			JOINT Spine2
			{
				OFFSET 0.00000 0.30532 3.48981
				CHANNELS 3 Xrotation Yrotation Zrotation
				JOINT Spine3
				{
					OFFSET 0.00000 0.00000 3.50314
					CHANNELS 3 Xrotation Yrotation Zrotation
					JOINT Neck
					{
						OFFSET 0.00000 -1.31367 9.19575
						CHANNELS 3 Xrotation Yrotation Zrotation
						JOINT Head
						{
							OFFSET 0.00000 -0.83643 4.74364
							CHANNELS 3 Xrotation Yrotation Zrotation
							End Site
							{
								OFFSET 0.00000 0.00001 5.67071
							}
						}
					}
					JOINT RightShoulder
					{
						OFFSET -1.05974 -1.76624 5.72262
						CHANNELS 3 Xrotation Yrotation Zrotation
						JOINT RightArm
						{
							OFFSET -5.26340 0.00000 0.00000
							CHANNELS 3 Xrotation Yrotation Zrotation
							JOINT RightForeArm
							{
								OFFSET -10.14667 0.00000 0.00000
								CHANNELS 3 Xrotation Yrotation Zrotation
								JOINT RightHand
								{
									OFFSET -8.53343 0.00000 0.00000
									CHANNELS 3 Xrotation Yrotation Zrotation
									JOINT RightHandEnd
									{
										OFFSET -2.46135 0.00000 0.00000
										CHANNELS 3 Xrotation Yrotation Zrotation
										End Site
										{
											OFFSET -2.46135 0.00000 0.00000
										}
									}
									JOINT RightHandThumb1
									{
										OFFSET -0.98454 -1.64090 -0.65636
										CHANNELS 3 Yrotation Xrotation Zrotation
										End Site
										{
											OFFSET -2.37748 -0.63704 0.00000
										}
									}
								}
							}
						}
					}
					JOINT LeftShoulder
					{
						OFFSET 1.05974 -1.76624 5.72262
						CHANNELS 3 Xrotation Yrotation Zrotation
						JOINT LeftArm
						{
							OFFSET 5.26340 0.00000 0.00000
							CHANNELS 3 Xrotation Yrotation Zrotation
							JOINT LeftForeArm
							{
								OFFSET 10.14667 0.00000 0.00000
								CHANNELS 3 Xrotation Yrotation Zrotation
								JOINT LeftHand
								{
									OFFSET 8.53343 0.00000 0.00000
									CHANNELS 3 Xrotation Yrotation Zrotation
									JOINT LeftHandEnd
									{
										OFFSET 2.46135 0.00000 0.00000
										CHANNELS 3 Xrotation Yrotation Zrotation
										End Site
										{
											OFFSET 2.46135 0.00000 0.00000
										}
									}
									JOINT LeftHandThumb1
									{
										OFFSET 0.98454 -1.64090 -0.65636
										CHANNELS 3 Yrotation Xrotation Zrotation
										End Site
										{
											OFFSET 2.37748 -0.63704 0.00000
										}
									}
								}
							}
						}
					}
				}
			}
		}
	}
	JOINT RightUpLeg
	{
		OFFSET -3.14391 0.00000 -0.91845
		CHANNELS 3 Xrotation Yrotation Zrotation
		JOINT RightLeg
		{
			OFFSET 0.00000 0.00000 -14.43197
			CHANNELS 3 Xrotation Yrotation Zrotation
			JOINT RightFoot
			{
				OFFSET 0.00000 0.00000 -14.31693
				CHANNELS 3 Xrotation Yrotation Zrotation
				JOINT RightToeBase
				{
					OFFSET 0.00000 -4.51635 -1.64382
					CHANNELS 3 Xrotation Yrotation Zrotation
					End Site
					{
						OFFSET 0.00000 -2.54339 -0.00000
					}
				}
			}
		}
	}
	JOINT LeftUpLeg
	{
		OFFSET 3.14391 0.00000 -0.91845
		CHANNELS 3 Xrotation Yrotation Zrotation
		JOINT LeftLeg
		{
			OFFSET 0.00000 0.00000 -14.43197
			CHANNELS 3 Xrotation Yrotation Zrotation
			JOINT LeftFoot
			{
				OFFSET 0.00000 0.00000 -14.31693
				CHANNELS 3 Xrotation Yrotation Zrotation
				JOINT LeftToeBase
				{
					OFFSET 0.00000 -4.51635 -1.64382
					CHANNELS 3 Xrotation Yrotation Zrotation
					End Site
					{
						OFFSET 0.00000 -2.54339 -0.00000
					}
				}
			}
		}
	}
}
MOTION
Frames: 6
Frame Time: 0.008342
 21.4219 -30.1220 31.6821 1.9764 -1.9338 -90.5604 -1.3071 -0.3003 0.1003 -1.1740 -0.7786 -0.0977 1.2936 0.7320 -0.9859 0.2903 0.5347 -0.6727 -5.2879 4.0181 -2.1237 -0.6284 -2.2742 -5.4481 -0.8112 13.5890 2.3157 -7.0041 -6.1994 -7.0030 0.0000 0.0000 0.5844 3.2552 0.5608 -7.4011 0.0000 0.0000 -0.0000 0.0000 -0.0000 -0.0000 0.3607 -13.6263 -1.8499 1.0265 13.7407 14.5409 -0.0000 -0.0000 -10.9795 -0.8157 -2.4492 7.3271 0.0000 -0.0000 -0.0000 -0.0000 -0.0000 0.0000 2.2990 3.0268 -8.4359 -1.7026 0.0000 -0.0000 -4.5863 -7.1020 -10.3255 0.9396 0.0000 0.0000 -0.3830 -6.5649 22.2556 3.1812 0.0000 0.0000 -3.0896 5.0626 -2.0956 -0.5287 0.0000 -0.0000
 21.4220 -30.1225 31.6820 1.9754 -1.9332 -90.5667 -1.3049 -0.3010 0.1004 -1.1731 -0.7779 -0.0970 1.2913 0.7338 -0.9860 0.2894 0.5377 -0.6750 -5.2812 4.0326 -2.1446 -0.6176 -2.2906 -5.4822 -0.8113 13.5852 2.3230 -7.0071 -6.1969 -7.0011 0.0000 0.0000 0.5826 3.2564 0.5644 -7.4031 0.0000 -0.0000 -0.0000 0.0000 -0.0000 -0.0000 0.3585 -13.6344 -1.8475 1.0156 13.7456 14.5450 -0.0000 -0.0000 -10.9760 -0.8131 -2.4556 7.3277 0.0000 0.0000 0.0000 -0.0000 0.0000 0.0000 2.2959 3.0292 -8.4506 -1.6977 0.0000 -0.0000 -4.5849 -7.1039 -10.3044 0.9407 0.0000 0.0000 -0.3816 -6.5627 22.2595 3.1820 0.0000 0.0000 -3.0930 5.0558 -2.0945 -0.5223 0.0000 -0.0000
 21.4223 -30.1232 31.6819 1.9735 -1.9338 -90.5757 -1.3031 -0.3006 0.1022 -1.1730 -0.7794 -0.0971 1.2894 0.7376 -0.9852 0.2884 0.5418 -0.6787 -5.2732 4.0496 -2.1705 -0.6040 -2.3099 -5.5239 -0.8101 13.5806 2.3299 -7.0120 -6.1942 -6.9954 0.0000 0.0000 0.5787 3.2598 0.5699 -7.4051 0.0000 0.0000 -0.0000 -0.0000 -0.0000 -0.0000 0.3562 -13.6446 -1.8444 1.0036 13.7530 14.5494 -0.0000 -0.0000 -10.9721 -0.8103 -2.4649 7.3278 0.0000 0.0000 -0.0000 -0.0000 0.0000 -0.0000 2.2896 3.0331 -8.4717 -1.6902 0.0000 -0.0000 -4.5835 -7.1063 -10.2742 0.9419 0.0000 0.0000 -0.3812 -6.5592 22.2641 3.1831 0.0000 0.0000 -3.0965 5.0477 -2.0913 -0.5162 0.0000 -0.0000
 21.4233 -30.1240 31.6818 1.9722 -1.9419 -90.5860 -1.3069 -0.2994 0.1033 -1.1747 -0.7823 -0.0974 1.2890 0.7416 -0.9846 0.2873 0.5450 -0.6809 -5.2656 4.0714 -2.1996 -0.5868 -2.3315 -5.5741 -0.8111 13.5757 2.3375 -7.0165 -6.1903 -6.9895 0.0000 0.0000 0.5742 3.2653 0.5789 -7.4052 -0.0000 -0.0000 0.0000 -0.0000 -0.0000 -0.0000 0.3520 -13.6521 -1.8425 0.9938 13.7604 14.5544 -0.0000 -0.0000 -10.9689 -0.8074 -2.4758 7.3272 -0.0000 0.0000 -0.0000 -0.0000 0.0000 -0.0000 2.2712 3.0367 -8.4998 -1.6770 0.0000 -0.0000 -4.5824 -7.1088 -10.2357 0.9428 0.0000 0.0000 -0.3919 -6.5569 22.2673 3.1890 0.0000 0.0000 -3.1016 5.0374 -2.0856 -0.5104 0.0000 -0.0000
 21.4240 -30.1251 31.6817 1.9700 -1.9460 -90.5978 -1.3074 -0.2978 0.1048 -1.1757 -0.7847 -0.0977 1.2885 0.7451 -0.9831 0.2863 0.5495 -0.6846 -5.2562 4.0933 -2.2322 -0.5684 -2.3537 -5.6275 -0.8123 13.5699 2.3474 -7.0188 -6.1855 -6.9840 0.0000 0.0000 0.5697 3.2722 0.5874 -7.4047 -0.0000 -0.0000 -0.0000 -0.0000 -0.0000 -0.0000 0.3485 -13.6628 -1.8396 0.9868 13.7730 14.5585 -0.0000 -0.0000 -10.9667 -0.8039 -2.4887 7.3256 -0.0000 -0.0000 -0.0000 0.0000 0.0000 -0.0000 2.2571 3.0415 -8.5335 -1.6639 0.0000 -0.0000 -4.5810 -7.1124 -10.1903 0.9434 0.0000 0.0000 -0.3967 -6.5528 22.2714 3.1929 0.0000 0.0000 -3.1060 5.0274 -2.0786 -0.5065 0.0000 -0.0000
 21.4251 -30.1263 31.6816 1.9684 -1.9542 -90.6106 -1.3108 -0.2961 0.1062 -1.1779 -0.7870 -0.0977 1.2889 0.7473 -0.9826 0.2854 0.5536 -0.6870 -5.2466 4.1173 -2.2666 -0.5486 -2.3763 -5.6837 -0.8141 13.5649 2.3571 -7.0204 -6.1806 -6.9783 0.0000 0.0000 0.5646 3.2805 0.5975 -7.4014 -0.0000 -0.0000 -0.0000 0.0000 0.0000 0.0000 0.3431 -13.6717 -1.8381 0.9881 13.7879 14.5611 -0.0000 -0.0000 -10.9654 -0.8016 -2.5032 7.3224 0.0000 0.0000 -0.0000 -0.0000 0.0000 -0.0000 2.2364 3.0459 -8.5721 -1.6478 0.0000 -0.0000 -4.5795 -7.1166 -10.1392 0.9430 0.0000 0.0000 -0.4076 -6.5497 22.2748 3.1996 0.0000 0.0000 -3.1112 5.0163 -2.0696 -0.5036 0.0000 -0.0000
